<?xml version="1.0" encoding="utf-8"?>
<!-- Generator: Adobe Illustrator 26.0.2, SVG Export Plug-In . SVG Version: 6.00 Build 0)  -->
<svg version="1.1" id="Layer_1" xmlns="http://www.w3.org/2000/svg" xmlns:xlink="http://www.w3.org/1999/xlink" x="0px" y="0px"
	 viewBox="0 0 175.8 150" style="enable-background:new 0 0 175.8 150;" xml:space="preserve">
<path d="M70.4,111.6c1.6,5.3,3.6,9.3,4,13.4c0.9,10.7-6,18.8-17.1,20.9c-8.4,1.6-18.2-4.5-21.1-13.5c-0.9-2.9-2.2-4.2-5.1-5.2
	c-7.8-2.7-12.6-8.4-13.6-16.7c-0.9-7.7,2-14.2,8.5-18.5c6.9-4.6,14.3-5,21.4-0.5c2.4,1.5,3.6,1.1,5.8-0.5c7-5.2,9.9-11.6,9.1-20.5
	c-0.7-8.7-0.4-17.6,0.8-26.2c2.8-20.9,20.7-37.2,41.7-40c27-3.6,48.8,15.6,53.4,36.5c1.4,6.3,0.1,8-6.3,7.3
	c-26.8-2.6-44.2,20.9-33.6,45.4c2.3,5.2,0.9,7.7-4.9,7.9c-8.8,0.3-17.6,0.4-26.4,0.1c-4.2-0.1-7.4,1-10.1,4.2
	C74.7,108.2,72,110.1,70.4,111.6z M108.8,92.8c-4-13.9-2.2-26.3,6-37.5c8.3-11.4,20.4-15.5,34-16.3c-5.4-17.2-22.6-28-41.7-26.7
	c-17.8,1.2-33.6,15-35.9,33c-1.4,11.6-1,23.4-0.8,35.1c0.1,6.7,5.3,11.9,11.5,12.2C90.6,93.1,99.3,92.8,108.8,92.8z M64.4,91.2
	c-2.3,2.3-4.5,4.7-6.8,7c-4,3.9-7.7,4.4-12.6,1.7c-1-0.6-2-1.4-3.1-1.8c-4.3-1.7-8.5-1.6-12.2,1.4c-3.8,3.1-5.4,7.1-3.9,11.9
	c1.4,4.6,4.6,7.5,9.6,8.2c5.9,0.8,7,1.9,7.9,7.6c0.7,4.7,4.3,9,8.4,10c4.8,1.3,9.7-0.4,12.6-4.6c3.1-4.4,2.7-8.8-0.1-13.3
	c-3.6-5.8-3-9.9,1.9-14.7c2.1-2,4-4.2,5.6-5.8C69.2,96.4,67,94,64.4,91.2z"/>
</svg>
