<?xml version="1.0" encoding="utf-8"?>
<!-- Generator: Adobe Illustrator 26.0.2, SVG Export Plug-In . SVG Version: 6.00 Build 0)  -->
<svg version="1.1" id="Layer_1" xmlns="http://www.w3.org/2000/svg" xmlns:xlink="http://www.w3.org/1999/xlink" x="0px" y="0px"
	 viewBox="0 0 175.8 150" style="enable-background:new 0 0 175.8 150;" xml:space="preserve">
<g>
	<path d="M140.1,100.8c-5.6,0-10.5,0-15.5,0c-11.9-0.1-19-7.2-18.9-19.1c0.1-12.8-0.3-25.6,1-38.3c1.8-17.4,11.6-29.5,28.2-35.9
		c8-3.1,13.1,0.3,13.1,8.8c0,40.3,0,80.7,0,121c0,0.6,0,1.1,0,1.7c0.1,2.8-1.3,4.7-4,4.6c-2.6,0-3.9-2-3.9-4.7c0-10.8,0-21.5,0-32.3
		C140.1,104.9,140.1,103.2,140.1,100.8z M139.8,92.3c0-26.2,0-51.8,0-77.6c-0.9,0.2-1.4,0.2-1.9,0.4c-13.7,4.8-21.9,14.7-23.3,28.7
		c-1.4,13.5-0.9,27.2-1,40.8c0,4.3,3.3,7.5,7.4,7.6C127.1,92.5,133.3,92.3,139.8,92.3z"/>
	<path d="M53.9,75.2c-2.8-0.2-4.9-0.2-7-0.6C33,72.1,26,61.8,28.2,47.1c1.8-11.9,3.9-23.8,5.9-35.7c0.5-2.7,1.4-5.5,4.7-5
		c3.5,0.5,3.8,3.3,3.2,6.3c-2,11.7-3.9,23.5-5.9,35.2c-1.5,9.1,1.7,16.7,9.2,17.8c8.1,1.2,16.7,1.2,24.8,0
		c7.5-1.1,10.8-8.7,9.2-17.8c-1.9-11.6-3.9-23.2-5.8-34.8c-0.2-1.4-0.5-3.1,0.1-4.2c0.6-1.2,2.8-2.8,3.3-2.5
		c1.7,0.9,3.7,2.5,4.1,4.2c1.6,7.7,2.7,15.5,3.9,23.3c0.9,5.8,2.2,11.6,2.4,17.4c0.4,14.5-8.1,23.1-22.6,23.5
		c-0.9,0-1.7,0.1-3.2,0.2c0,1.6,0,3.1,0,4.6c0,18.7,0,37.3,0,56c0,1.1,0,2.3,0,3.4c0,2.8-1.5,4.8-4.1,4.3c-1.5-0.3-3.5-2.8-3.6-4.3
		c-0.3-9.6-0.2-19.2-0.2-28.9C53.8,98.7,53.9,87.1,53.9,75.2z"/>
	<path d="M54.2,32.2c-0.3,6.7-0.8,13.4-1,20.2c-0.1,2.8-1.2,5.1-4,5.1c-2.9,0-4-2.4-3.9-5.2c0.7-13.7,1.4-27.5,2.1-41.2
		c0.1-2.8,1.6-5.2,4.4-4.5c1.5,0.4,3.3,3.2,3.3,5C55.1,18.4,54.5,25.3,54.2,32.2z"/>
	<path d="M69.3,32.8c0.3,6.3,0.6,12.6,1,18.9c0.2,2.9-0.5,5.6-3.7,5.7c-3.2,0.1-4.1-2.4-4.2-5.3c-0.6-13.3-1.3-26.6-2-39.9
		c-0.1-2.8,0.4-5.6,3.6-5.7c3.2-0.2,4.1,2.5,4.3,5.3C68.6,18.8,69,25.8,69.3,32.8C69.3,32.8,69.3,32.8,69.3,32.8z"/>
</g>
</svg>
