<?xml version="1.0" encoding="utf-8"?>
<!-- Generator: Adobe Illustrator 26.0.2, SVG Export Plug-In . SVG Version: 6.00 Build 0)  -->
<svg version="1.1" id="Layer_1" xmlns="http://www.w3.org/2000/svg" xmlns:xlink="http://www.w3.org/1999/xlink" x="0px" y="0px"
	 viewBox="0 0 175.8 150" style="enable-background:new 0 0 175.8 150;" xml:space="preserve">
<g>
	<path d="M92.1,39.3c5.7,0,11.2,0.1,16.7-0.1c1.2,0,2.8-0.9,3.4-2c2.9-4.9,7.3-6.8,12.7-6.8c8-0.1,16-0.1,24,0
		c8.5,0.2,14.3,5.8,14.1,13.4c-0.1,7.5-5.8,12.9-14.1,13.1c-8.1,0.2-16.3,0.2-24.4,0c-5.2-0.1-9.4-2-12.2-6.8c-0.6-1-1.9-2-3-2
		c-5.7-0.2-11.5-0.1-17.2-0.1c-4.3,26.3-27.6,38.6-47.4,34.8c-18.3-3.6-32.2-20.3-32-39.5C13,24.2,27.1,7.8,45.1,4.5
		C65.3,0.8,87.9,13.6,92.1,39.3z M52.4,12.4c-17.5,0-31.5,13.8-31.5,31.2c-0.1,17.4,13.9,31.4,31.3,31.4c17.8,0,31.8-13.8,31.8-31.4
		C83.8,26.2,69.9,12.4,52.4,12.4z M136.7,48.2c4.3,0,8.6,0,12.9,0c3.2,0,5.2-1.4,5.2-4.6c0-3-1.9-4.5-4.9-4.5c-8.7,0-17.5,0-26.2,0
		c-3,0-4.9,1.4-5,4.4c-0.1,3.2,1.9,4.7,5.2,4.7C128.2,48.2,132.5,48.2,136.7,48.2z"/>
	<path d="M92.7,101.7c-1.9-0.1-3-0.1-4.2-0.2c-2.6-0.3-4.6-1.4-4.6-4.4c0-3,2-4.2,4.7-4.3c4.1-0.1,8.2,0,13,0c0-3.1-0.1-5.9,0-8.6
		c0.2-5.8,3.3-9.1,9.1-9.2c8.3-0.1,16.6-0.1,24.9,0c6.3,0.1,9.5,3.3,9.6,9.7c0,2.5,0,5,0,8.1c3.7,0,7,0,10.4,0
		c3.3,0,7.2-0.4,7.2,4.3c0.1,4.4-3.6,4.4-6.8,4.4c-0.4,0-0.9,0.1-2,0.3c0,1.5,0,3,0,4.6c0,8.5,0.1,16.9,0,25.4
		c-0.1,8.6-5.2,14-13.8,14.1c-11.2,0.2-22.5,0.2-33.7,0c-8.6-0.2-13.7-5.6-13.8-14.2C92.7,121.9,92.7,112,92.7,101.7z M146,101.9
		c-15.4,0-30.2,0-45.2,0c0,10.5-0.1,20.5,0,30.6c0,3.2,1.8,4.9,5.1,4.8c11.7,0,23.4,0,35,0c3.3,0,5-1.7,5-4.9
		C146.1,122.4,146,112.3,146,101.9z M137,84c-9.3,0-18.1,0-26.9,0c0,3.1,0,5.8,0,8.8c4.8,0,9.2,0,13.7,0c4.4,0,8.7,0,13.2,0
		C137,89.5,137,86.9,137,84z"/>
	<path d="M57,119.4c-2.6,7.5-4.5,8.8-12.5,8.8c-4.6,0-9.2,0.1-13.8,0c-5.8-0.2-9-3.4-9.1-9.3c-0.1-6.8,0.1-13.7-0.1-20.5
		c-0.1-4.3,2.2-5.7,6.1-5.7c10.5,0.1,21,0,31.5,0c8.9,0.1,14.8,5.4,14.8,13.2c0.1,7.8-5.7,13-14.7,13.4
		C58.7,119.3,58,119.4,57,119.4z M48,119.3c0-6.1,0-11.8,0-17.5c-6.2,0-12,0-17.9,0c0,6,0,11.7,0,17.5
		C36.1,119.3,41.8,119.3,48,119.3z M56.6,100.6c0,4.1,0,6.8,0,10.9c3.3-1.1,6.1-1.7,8.5-3.1c0.7-0.4,0.8-4.2,0-4.6
		C62.8,102.3,59.9,101.7,56.6,100.6z"/>
	<path d="M43.1,146.1c-8,0-16,0-24,0c-3.2,0-6.3-0.4-6.3-4.5c0.1-4.1,3.3-4.3,6.4-4.3c16.1,0,32.3,0,48.4,0c3.2,0,6.3,0.4,6.3,4.5
		c-0.1,4.1-3.3,4.3-6.5,4.3C59.4,146,51.3,146.1,43.1,146.1z"/>
	<path d="M30.5,43.6c0-11.8,10-22,21.7-22.1c11.7-0.1,22,10.2,21.9,22.3c0,11.8-10,22-21.7,22.1C40.7,66,30.5,55.6,30.5,43.6z
		 M52.3,57.1c7.8,0,13.9-5.9,13.8-13.6C66,36,60,30.2,52.4,30.2c-7.8,0-13.9,5.9-13.8,13.6C38.7,51.3,44.7,57.1,52.3,57.1z"/>
</g>
</svg>
