<?xml version="1.0" encoding="utf-8"?>
<!-- Generator: Adobe Illustrator 26.0.2, SVG Export Plug-In . SVG Version: 6.00 Build 0)  -->
<svg version="1.1" id="Layer_1" xmlns="http://www.w3.org/2000/svg" xmlns:xlink="http://www.w3.org/1999/xlink" x="0px" y="0px"
	 viewBox="0 0 175.8 150" style="enable-background:new 0 0 175.8 150;" xml:space="preserve">
<g>
	<path d="M78.9,144.8c-2.7-0.4-7.1-1.4-11.6-1.6c-5.7-0.2-11.7-0.8-17.1,0.5c-19.9,4.6-35.6-11.2-30.9-31c1.1-4.7,1.8-10.1,0.8-14.8
		c-5.9-28.7,4.1-51.8,24.3-71.2c13-12.6,28.8-20.2,47.1-21.4c5.4-0.3,10.9,1,16.3,1.2c5.7,0.2,11.8,1.2,17.1-0.3
		c19.8-5.5,36.6,11.7,31.3,31.5c-1.2,4.5-1.8,9.8-0.7,14.2c7.9,32-10.8,64.8-36.8,81.1C107,140.2,94.4,144.3,78.9,144.8z
		 M59.2,127.3c5.9,0.9,11.8,2.2,17.7,2.6c17.9,1.1,32.9-5.8,45.4-18c16-15.7,24.1-34.2,19.2-57.4c-1.3-6.4-0.4-13.6,0.9-20.2
		c2.1-10.5-3.6-16.2-14.2-14.1c-6.3,1.2-12.8,1.3-19.2,1.3c-3.8,0-7.5-1.5-11.3-1.7c-17.3-0.8-31.9,6-44,17.7
		C37.5,53.3,29.2,71.9,34.1,95.2c1.3,6.4,0.4,13.6-0.9,20.2c-2.1,10.5,3.6,16.5,14.2,14C51.2,128.5,55.2,128,59.2,127.3z"/>
	<path d="M46.2,78.3c0.1-0.4,0.3-1.7,0.8-3c7.5-20.3,21.3-34.2,41.6-41.6c3.9-1.4,7.6-1.6,10.1,2.4c2.3,3.7,0.8,8.9-3.5,10.4
		c-18,6-29.8,18.1-35.9,36c-1.3,3.7-4.4,5-8.1,4.1C47.4,85.9,45.9,83,46.2,78.3z"/>
</g>
</svg>
